<svg width="570" height="482" viewBox="0 0 570 482" fill="none" xmlns="http://www.w3.org/2000/svg">
<g clip-path="url(#clip0_245_2)">
<path d="M549.819 46.9893C505.283 46.9893 467.171 27.9579 451.5 1C435.829 27.958 397.717 46.9893 353.181 46.9893C346.768 46.9914 340.362 46.5899 334 45.7869V192.946C334 227.76 352.585 259.928 382.753 277.335L451.5 317L520.247 277.335C550.415 259.928 569 227.76 569 192.946V45.7869C562.638 46.5899 556.232 46.9914 549.819 46.9893Z" fill="#1B334B"/>
<path d="M520.454 277.335C550.494 259.928 569 227.76 569 192.946V45.787C562.665 46.5899 556.286 46.9915 549.901 46.9893C505.554 46.9893 467.604 27.958 452 1V317L520.454 277.335Z" fill="#274C72"/>
<path d="M452 317L520.454 277.335C550.494 259.928 569 227.76 569 192.946V45.787C562.665 46.5899 556.286 46.9915 549.901 46.9893C505.554 46.9893 467.604 27.958 452 1" stroke="#19347D" stroke-width="1.5"/>
<path d="M403 166.047L410.047 159L446 194.952L438.954 202L403 166.047Z" fill="#53E79C"/>
<path d="M509.959 117L517 124.041L439.042 202L432 194.958L509.959 117Z" fill="#53E79C"/>
<path d="M35.0533 4.00005C18.4848 3.9707 5.0295 17.3544 5 33.8935L65 34C65.0294 17.461 51.6218 4.02952 35.0533 4.00005Z" fill="#64B5F6"/>
<path d="M97.0301 17C87.641 16.9834 80.0167 24.5675 80 33.9397L114 34C114.008 29.4993 112.225 25.1798 109.042 21.9918C105.859 18.8036 101.539 17.0081 97.0301 17Z" fill="#64B5F6"/>
<path d="M65.055 3.00005C47.9342 2.96974 34.0305 16.7996 34 33.89L96 34C96.0303 16.9096 82.1757 3.0305 65.055 3.00005Z" fill="#64B5F6"/>
<path d="M0 33.375L122 33.6252" stroke="#64B5F6" stroke-width="1.5"/>
<g opacity="0.5">
<path d="M102.326 203.09C115.929 203.065 126.976 214.147 127 227.839L77.7403 227.928C77.7161 214.235 88.724 203.114 102.326 203.09Z" fill="#64B5F6"/>
<path d="M51.0173 213.84C58.7726 213.826 65.0707 220.144 65.0845 227.951L37 228C36.9934 224.252 38.4665 220.653 41.0952 217.998C43.724 215.342 47.2931 213.847 51.0173 213.84Z" fill="#64B5F6"/>
<path d="M77.6945 202C91.9192 201.975 103.471 213.562 103.497 227.881L51.9844 227.974C51.9592 213.654 63.47 202.025 77.6945 202Z" fill="#64B5F6"/>
</g>
<path d="M131 227.396L29 227.603" stroke="#ACD5FB" stroke-width="1.5"/>
<path d="M355.262 454.897H319.785V439.811H283.536V423.729L249.146 399.728H215.667V328.72H162.451V243L95.3528 302.661V416.495H59.8759V466.919H45.222V452.84H19V481H373V470.67L355.262 454.897Z" fill="#1B334B"/>
<path d="M2 480.5H390" stroke="#19347D" stroke-width="1.5"/>
<path d="M171 346H166V350H171V346Z" fill="white"/>
<path d="M183 346H178V350H183V346Z" fill="white"/>
<path d="M195 346H190V350H195V346Z" fill="white"/>
<path d="M171 358H166V362H171V358Z" fill="white"/>
<path d="M183 358H178V362H183V358Z" fill="white"/>
<path d="M195 358H190V362H195V358Z" fill="white"/>
<path d="M171 369H166V373H171V369Z" fill="white"/>
<path d="M183 369H178V373H183V369Z" fill="white"/>
<path d="M195 369H190V373H195V369Z" fill="white"/>
<path d="M171 381H166V385H171V381Z" fill="white"/>
<path d="M183 381H178V385H183V381Z" fill="white"/>
<path d="M195 381H190V385H195V381Z" fill="white"/>
<path d="M171 392H166V396H171V392Z" fill="white"/>
<path d="M183 392H178V396H183V392Z" fill="white"/>
<path d="M195 392H190V396H195V392Z" fill="white"/>
<path d="M171 404H166V408H171V404Z" fill="white"/>
<path d="M183 404H178V408H183V404Z" fill="white"/>
<path d="M195 404H190V408H195V404Z" fill="white"/>
<path d="M171 416H166V420H171V416Z" fill="white"/>
<path d="M183 416H178V420H183V416Z" fill="white"/>
<path d="M195 416H190V420H195V416Z" fill="white"/>
<path d="M171 427H166V431H171V427Z" fill="white"/>
<path d="M183 427H178V431H183V427Z" fill="white"/>
<path d="M195 427H190V431H195V427Z" fill="white"/>
<path d="M171 439H166V443H171V439Z" fill="white"/>
<path d="M183 439H178V443H183V439Z" fill="white"/>
<path d="M195 439H190V443H195V439Z" fill="white"/>
<path d="M485.756 356.15C481.793 352.486 478.776 347.906 476.967 342.806C472.475 330.319 460.69 322 447.491 322C434.292 322 422.507 330.319 418.015 342.806C416.206 347.906 413.189 352.486 409.226 356.15C398.902 365.622 396.056 380.825 402.246 393.428C408.436 406.031 422.17 412.989 435.919 410.491C443.572 409.101 451.411 409.101 459.063 410.491C472.817 413.003 486.562 406.046 492.755 393.438C498.948 380.829 496.093 365.618 485.756 356.15Z" fill="#3C67FF"/>
<path d="M436 411.49C443.643 410.079 451.471 410.079 459.113 411.49C468.241 413.176 477.632 410.636 484.752 404.558C491.872 398.478 495.992 389.485 496 380" stroke="#19347D" stroke-width="1.5"/>
<path d="M384 480.5H510" stroke="#19347D" stroke-width="1.5"/>
<path d="M447.5 389V481" stroke="#19347D" stroke-width="1.5"/>
<path d="M461 376L447.5 389L434 376" stroke="#19347D" stroke-width="1.5"/>
<path d="M394.298 411.186C392.091 409.127 390.412 406.554 389.405 403.688C386.904 396.674 380.343 392 372.996 392C365.648 392 359.086 396.674 356.585 403.688C355.579 406.554 353.899 409.127 351.693 411.186C345.945 416.507 344.361 425.048 347.807 432.128C351.254 439.208 358.899 443.118 366.553 441.714C370.813 440.933 375.177 440.933 379.437 441.714C387.094 443.125 394.746 439.217 398.193 432.134C401.641 425.05 400.052 416.505 394.298 411.186Z" fill="#53E79C"/>
<path d="M366 441.713C370.331 440.919 374.767 440.919 379.098 441.713C384.271 442.661 389.591 441.233 393.626 437.814C397.661 434.394 399.996 429.336 400 424" stroke="#19347D" stroke-width="1.5"/>
<path d="M373.5 429V480" stroke="#19347D" stroke-width="1.5"/>
<path d="M381 422L373.5 429L366 422" stroke="#19347D" stroke-width="1.5"/>
<path d="M224.895 189C224.895 189 147.122 232.275 165.935 291.281C184.748 350.287 239.554 386.204 239.554 386.204V407L279 356.855L243.255 287.715L265.408 275.559L254.652 189" fill="#3C67FF"/>
<path d="M240 187.565L319 183V268.392V479H256.913L263.478 467.27L240 187.565Z" fill="#3C67FF"/>
<path d="M255 46.913V71.5103L285 79V37.4896L255 30V46.913Z" fill="#1B334B"/>
<path d="M271.999 56C271.448 56 271 55.5523 271 55C271 54.4477 271.448 54 271.999 54C272.552 54 273 54.4477 273 55C273 55.5523 272.552 56 271.999 56Z" fill="white"/>
<path d="M260.001 56C259.448 56 259 55.5523 259 55C259 54.4477 259.448 54 260.001 54C260.552 54 261 54.4477 261 55C261 55.5523 260.552 56 260.001 56Z" fill="white"/>
<path d="M263 59V47H257" stroke="white" stroke-width="1.5" stroke-linecap="round" stroke-linejoin="round"/>
<path d="M274 47.5H268" stroke="white" stroke-width="1.5" stroke-linecap="round" stroke-linejoin="round"/>
<path d="M283 53.9728V58C285.209 58 287 56.239 287 54.0667C287 53.946 286.994 53.8266 286.983 53.7086C286.76 51.2661 283 51.5204 283 53.9728Z" fill="#1F658F"/>
<path d="M283 58C285.209 58 287 56.2092 287 54" stroke="white" stroke-width="1.5" stroke-linecap="round" stroke-linejoin="round"/>
<path d="M266 63C267.061 63 268.078 62.5786 268.828 61.8284C269.578 61.0783 270 60.0609 270 59" stroke="white" stroke-width="1.5" stroke-linecap="round" stroke-linejoin="round"/>
<path d="M255 72L285 79" stroke="white" stroke-width="1.5" stroke-linecap="round" stroke-linejoin="round"/>
<path d="M263 59.1152L266 59.8841" stroke="white" stroke-width="1.5" stroke-linecap="round" stroke-linejoin="round"/>
<path d="M280.986 52.8868L279.625 42.9722L249.939 38.4915L253.133 34.5352L249 30.7212L253.885 28.1955L249.235 24.3822C249.235 24.3822 276.684 21.6175 285.872 30.9602C292.386 37.584 295.881 50.8093 285.029 61" stroke="#19347D" stroke-width="1.5" stroke-linecap="round" stroke-linejoin="round"/>
<path d="M225 122.789V188.96L319 212V138.303C319 112.172 301.11 89.4161 275.664 83.1792C263.461 80.1881 250.556 82.9573 240.667 90.6894C230.776 98.421 225 110.257 225 122.789Z" fill="#53E79C"/>
<path d="M264.554 97.8777L253 157.056L257.255 168L267.951 158.987L267.236 98.3111L271 93H262L264.554 97.8777Z" fill="white"/>
<path d="M263 467L240 187" stroke="#19347D" stroke-width="1.5" stroke-linecap="round" stroke-linejoin="round"/>
<path d="M285.305 86C285.305 86 338.873 117.261 350.875 162.322C362.879 207.383 349.161 249.022 303.435 261L287.423 242.056L306.647 212.699C313.931 201.576 312.549 186.909 303.316 177.336L276 149.013" stroke="#19347D" stroke-width="1.5" stroke-linecap="round" stroke-linejoin="round"/>
<path d="M303 261L274 227" stroke="#19347D" stroke-width="1.5" stroke-linecap="round" stroke-linejoin="round"/>
<path d="M242 91C242 91 207.627 113.372 186.03 170.573C186.03 170.573 181.195 124.746 175.396 124.844C167.126 125.696 167.13 125.279 167.13 125.279C167.13 125.279 145.378 123.104 147.097 126.584C150.886 136.054 162.727 139.084 162.727 139.084C162.727 139.084 135.255 205.181 183.376 225" stroke="#19347D" stroke-width="1.5" stroke-linecap="round" stroke-linejoin="round"/>
<path d="M192 124H125.264L96 56" stroke="#19347D" stroke-width="1.5" stroke-linecap="round" stroke-linejoin="round"/>
<path d="M319 256V275C314.262 270.962 310.209 266.162 307 260.79C311.127 259.545 315.142 257.943 319 256Z" fill="#2850DE"/>
</g>
<defs>
<clipPath id="clip0_245_2">
<rect width="570" height="482" fill="white"/>
</clipPath>
</defs>
</svg>
